<?xml version="1.0" encoding="UTF-8" standalone="no"?>
<!DOCTYPE svg PUBLIC "-//W3C//DTD SVG 1.1//EN" "http://www.w3.org/Graphics/SVG/1.1/DTD/svg11.dtd">
<svg width="100%" height="100%" viewBox="0 0 838 200" version="1.1" xmlns="http://www.w3.org/2000/svg" xmlns:xlink="http://www.w3.org/1999/xlink" xml:space="preserve" xmlns:serif="http://www.serif.com/" style="fill-rule:evenodd;clip-rule:evenodd;stroke-linecap:round;stroke-linejoin:round;stroke-miterlimit:1.5;">
    <rect id="background" x="0" y="0" width="838" height="200" style="fill:rgb(74,26,55);"/>
    <g id="logo">
        <path id="spider-strand" d="M223.37,104.825l0,34.953" style="fill:none;stroke:white;stroke-width:0.5px;"/>
        <path id="S-web" d="M232.388,42.986l-18.821,21.509l-1.595,-19.822l11.398,8.618l2.296,7.171l-0,12.099l6.722,13.444l-18.821,10.754l-0,-8.066l8.066,-16.132l-4.286,8.571l6.023,10.025l2.296,9.978m-6.722,-36.64l13.444,-8.066" style="fill:none;stroke:white;stroke-width:0.5px;"/>
        <path id="R-web" d="M445.887,68.394l6.909,-7.387l-9.163,-8.335m9.163,8.335l-4.221,-16.811m9.116,-0l-4.895,16.811m11.911,-6.056l-11.911,6.056m4.895,11.554l-4.895,-11.554m-2.167,-9.332l-3.295,3.903l2.261,8.662l4.924,0.275l3.143,-6.36l-2.256,-5.597l-4.777,-0.883Z" style="fill:none;stroke:white;stroke-width:0.5px;"/>
        <path id="spinerette" d="M205,87.789c0,14.187 5.937,21.049 17.811,21.049c11.488,0 17.811,-6.476 17.811,-18.582c-0,-10.409 -7.171,-15.96 -14.342,-21.434l0.155,-0c-5.32,-4.087 -10.641,-8.328 -10.641,-13.802c0,-5.628 2.545,-8.096 7.017,-8.096c4.78,0 7.016,3.239 7.016,10.332l0,1.542c0,2.159 1.774,3.855 3.933,3.855l3.007,0c2.158,0 3.855,-1.696 3.855,-3.855l-0,-1.542c-0,-13.724 -6.091,-21.126 -17.811,-21.126c-11.411,-0 -17.811,7.016 -17.811,19.199c0,10.64 7.479,16.5 14.573,22.128l-0,-0.154c5.32,4.164 10.254,8.096 10.254,13.185c0,5.705 -2.467,7.71 -7.016,7.71c-1.465,-0 -3.316,-0.231 -4.472,-1.465c-1.542,-1.234 -2.545,-3.778 -2.545,-8.944l0,-1.388c0,-2.159 -1.773,-3.855 -3.855,-3.855l-3.007,0c-2.159,0 -3.932,1.696 -3.932,3.855l0,1.388Zm58.676,-9.946c13.107,-0 18.967,-6.862 18.967,-20.818c-0,-13.879 -5.86,-20.818 -18.967,-20.818l-11.72,-0c-2.159,-0 -3.855,1.696 -3.855,3.855l-0,64.998c-0,2.159 1.696,3.932 3.855,3.932l3.084,0c2.005,0 3.778,-1.773 3.778,-3.932l0,-27.217l4.858,-0Zm-0,-30.919c5.782,0 8.172,2.853 8.172,10.101c0,7.016 -2.39,10.177 -8.172,10.177l-4.858,0l0,-20.278l4.858,0Zm36.778,-6.862c-0,-2.159 -1.851,-3.855 -3.855,-3.855l-3.085,-0c-2.158,-0 -3.855,1.696 -3.855,3.855l0,64.998c0,2.159 1.697,3.932 3.855,3.932l3.085,0c2.004,0 3.855,-1.773 3.855,-3.932l-0,-64.998Zm39.168,68.93c2.159,0 3.932,-1.773 3.932,-3.932l0,-64.998c0,-2.159 -1.773,-3.855 -3.932,-3.855l-3.007,-0c-2.159,-0 -3.855,1.696 -3.855,3.855l0,35.622l-15.035,-37.087c-0.463,-1.233 -2.159,-2.39 -3.547,-2.39l-2.621,-0c-2.005,-0 -3.856,1.696 -3.856,3.855l0,64.998c0,2.159 1.851,3.932 3.856,3.932l3.161,0c2.005,0 3.855,-1.773 3.855,-3.932l0,-35.622l15.035,37.164c0.386,1.157 2.236,2.39 3.547,2.39l2.467,0Zm44.257,0c2.159,0 3.933,-1.773 3.933,-3.932l-0,-64.998c-0,-2.159 -1.774,-3.855 -3.933,-3.855l-3.007,-0c-2.158,-0 -3.855,1.696 -3.855,3.855l0,35.622l-15.035,-37.087c-0.462,-1.233 -2.159,-2.39 -3.547,-2.39l-2.621,-0c-2.005,-0 -3.855,1.696 -3.855,3.855l-0,64.998c-0,2.159 1.85,3.932 3.855,3.932l3.161,0c2.005,0 3.855,-1.773 3.855,-3.932l0,-35.622l15.035,37.164c0.386,1.157 2.236,2.39 3.547,2.39l2.467,0Zm16.192,-72.785c-2.159,-0 -3.855,1.696 -3.855,3.855l-0,64.998c-0,2.159 1.696,3.932 3.855,3.932l23.362,0c2.159,0 3.856,-1.773 3.856,-3.932l-0,-2.93c-0,-2.159 -1.697,-3.855 -3.856,-3.855l-16.577,0l0,-20.432l13.648,-0c2.158,-0 3.855,-1.697 3.855,-3.855l-0,-2.93c-0,-2.159 -1.697,-3.856 -3.855,-3.856l-13.648,0l0,-20.278l16.577,0c2.159,0 3.856,-1.773 3.856,-3.932l-0,-2.93c-0,-2.159 -1.697,-3.855 -3.856,-3.855l-23.362,-0Zm69.085,50.734c-0,-5.629 -1.465,-10.024 -4.627,-13.416c0.309,-0.308 0.54,-0.54 0.849,-0.848c3.392,-3.316 4.549,-8.713 4.549,-15.421c-0,-14.495 -4.627,-21.126 -17.888,-21.126l-13.648,-0c-2.158,-0 -3.855,1.696 -3.855,3.855l0,64.998c0,2.159 1.697,3.855 3.855,3.855l3.007,0c2.082,0 3.779,-1.696 3.779,-3.855l-0,-26.446l4.857,-0c5.32,-0 8.327,3.007 8.327,8.404l0,18.042c0,2.159 1.774,3.855 3.932,3.855l3.007,0c2.159,0 3.856,-1.696 3.856,-3.855l-0,-18.042Zm-23.979,-40.017l6.862,0c5.551,0 7.17,3.007 7.17,10.332c0,7.325 -3.084,10.332 -9.175,10.332l-4.857,-0l-0,-20.664Zm36.007,-10.717c-2.159,-0 -3.933,1.696 -3.933,3.855l0,64.998c0,2.159 1.774,3.932 3.933,3.932l23.285,0c2.159,0 3.855,-1.773 3.855,-3.932l0,-2.93c0,-2.159 -1.696,-3.855 -3.855,-3.855l-16.5,0l-0,-20.432l13.57,-0c2.159,-0 3.932,-1.697 3.932,-3.855l0,-2.93c0,-2.159 -1.773,-3.856 -3.932,-3.856l-13.57,0l-0,-20.278l16.5,0c2.159,0 3.855,-1.773 3.855,-3.932l0,-2.93c0,-2.159 -1.696,-3.855 -3.855,-3.855l-23.285,-0Zm33.848,6.785c0,2.159 1.773,3.932 3.932,3.932l8.713,0l-0,58.059c-0,2.159 1.696,3.855 3.855,3.855l2.93,0c2.159,0 3.932,-1.696 3.932,-3.855l0,-58.059l8.79,0c2.159,0 3.932,-1.773 3.932,-3.932l0,-3.007c0,-2.159 -1.773,-3.855 -3.932,-3.855l-28.22,-0c-2.159,-0 -3.932,1.696 -3.932,3.855l0,3.007Zm43.332,0c0,2.159 1.696,3.932 3.855,3.932l8.713,0l-0,58.059c-0,2.159 1.773,3.855 3.932,3.855l2.93,0c2.159,0 3.855,-1.696 3.855,-3.855l0,-58.059l8.867,0c2.159,0 3.855,-1.773 3.855,-3.932l0,-3.007c0,-2.159 -1.696,-3.855 -3.855,-3.855l-28.297,-0c-2.159,-0 -3.855,1.696 -3.855,3.855l0,3.007Zm47.496,-6.785c-2.159,-0 -3.933,1.696 -3.933,3.855l0,64.998c0,2.159 1.774,3.932 3.933,3.932l23.285,0c2.159,0 3.855,-1.773 3.855,-3.932l-0,-2.93c-0,-2.159 -1.696,-3.855 -3.855,-3.855l-16.5,0l-0,-20.432l13.57,-0c2.159,-0 3.932,-1.697 3.932,-3.855l0,-2.93c0,-2.159 -1.773,-3.856 -3.932,-3.856l-13.57,0l-0,-20.278l16.5,0c2.159,0 3.855,-1.773 3.855,-3.932l-0,-2.93c-0,-2.159 -1.696,-3.855 -3.855,-3.855l-23.285,-0Z" style="fill:rgb(255,64,110);fill-rule:nonzero;"/>
        <path id="spider" d="M239.687,148.802l-7.534,-1.467l8.61,-4.99c0.783,-0.392 1.174,-1.272 0.881,-2.153l-2.74,-11.056c-0.294,-1.076 -1.37,-1.663 -2.348,-1.468c-1.077,0.294 -1.664,1.37 -1.468,2.349l2.446,9.686l-7.436,4.305l-0.293,-0.587l4.5,-3.327c0.685,-0.489 0.979,-1.272 0.685,-2.054l-2.642,-9.491c-0.293,-1.076 -1.369,-1.663 -2.446,-1.37c-1.076,0.294 -1.663,1.37 -1.369,2.446l2.25,8.121l-3.914,2.935c-0.587,-0.293 -1.174,-0.587 -1.859,-0.782l-4.109,-0c-0.587,0.098 -1.076,0.293 -1.566,0.587l-3.718,-2.74l2.251,-8.121c0.293,-1.076 -0.294,-2.152 -1.37,-2.446c-1.076,-0.293 -2.153,0.294 -2.446,1.37l-2.642,9.491c-0.196,0.782 0.098,1.663 0.685,2.054l4.109,3.033c-0.097,0.196 -0.293,0.392 -0.391,0.588l-6.653,-4.012l2.446,-9.686c0.293,-1.077 -0.392,-2.153 -1.468,-2.349c-1.076,-0.293 -2.152,0.392 -2.348,1.468l-2.74,11.056c-0.195,0.881 0.196,1.761 0.881,2.153l8.61,4.99l-7.534,1.467c-0.978,0.196 -1.663,1.077 -1.565,2.153l1.174,11.154c0.098,0.978 0.978,1.761 1.957,1.761l0.195,0c1.077,-0.098 1.859,-1.076 1.762,-2.152l-0.979,-9.295l6.653,-1.272l0,0.097l-4.305,1.566c-0.978,0.391 -1.467,1.468 -1.174,2.446l2.642,7.338c0.294,0.783 1.076,1.272 1.859,1.272c0.196,0 0.391,0 0.685,-0.098c0.978,-0.391 1.565,-1.467 1.174,-2.544l-1.957,-5.479l2.838,-1.076c-0.294,0.685 -0.49,1.37 -0.49,2.152c0,3.034 2.446,5.577 5.577,5.577c3.034,0 5.577,-2.446 5.577,-5.577c0,-0.88 -0.195,-1.663 -0.587,-2.446l3.425,1.272l-2.055,5.577c-0.391,0.979 0.098,2.153 1.174,2.544c0.196,0.098 0.49,0.098 0.685,0.098c0.783,0 1.566,-0.489 1.859,-1.272l2.74,-7.338c0.391,-0.978 -0.098,-2.153 -1.174,-2.544l-4.697,-1.761l7.143,1.37l-0.979,9.295c-0.098,1.076 0.685,2.054 1.762,2.152l0.195,0c0.979,0 1.859,-0.782 1.957,-1.761l1.174,-11.154c0.098,-0.881 -0.587,-1.859 -1.565,-2.055Zm-16.634,9.687c-0.88,-0 -1.663,-0.685 -1.663,-1.664c0,-0.978 0.685,-1.663 1.663,-1.663c0.979,0 1.664,0.685 1.664,1.663c-0,0.979 -0.783,1.664 -1.664,1.664Zm0,-7.143c-2.152,0 -3.815,-1.761 -3.815,-3.816c-0,-2.054 1.663,-3.913 3.815,-3.913c2.153,-0 3.816,1.761 3.816,3.816c0,2.054 -1.663,3.913 -3.816,3.913Z" style="fill:rgb(255,64,110);fill-rule:nonzero;"/>
        <path id="subttile" d="M267.851,142.506c-0,-4.344 -1.841,-6.602 -5.596,-6.602c-3.779,-0 -5.669,2.258 -5.669,6.602l-0,9.743c-0,4.344 1.89,6.823 5.669,6.823c0.835,0 1.595,-0.147 2.283,-0.466l0.736,0.982c0.172,0.196 0.761,0.441 0.982,0.441l1.251,0c1.105,0 1.669,-1.129 0.933,-1.988l-1.448,-1.718c0.564,-1.104 0.859,-2.454 0.859,-4.074l-0,-9.743Zm-7.829,-0c-0,-2.16 0.761,-3.191 2.233,-3.191c1.473,0 2.16,0.957 2.16,3.191l-0,9.743c-0,0.467 -0.025,0.859 -0.049,1.203c-0.123,-0.025 -0.246,-0.025 -0.295,-0.025l-1.227,0c-1.104,0 -1.693,1.129 -0.957,2.037l0.172,0.197c-1.35,-0.098 -2.037,-1.227 -2.037,-3.412l-0,-9.743Zm10.111,10.234c0,3.632 1.498,6.283 5.621,6.283c4,0 5.645,-2.43 5.645,-6.283l-0,-15.634c-0,-0.687 -0.54,-1.227 -1.228,-1.227l-0.981,0c-0.638,0 -1.203,0.54 -1.203,1.227l0,15.634c0,1.644 -0.466,2.896 -2.233,2.896c-1.669,0 -2.234,-1.08 -2.234,-2.896l0,-15.634c0,-0.687 -0.54,-1.227 -1.227,-1.227l-0.957,0c-0.663,0 -1.203,0.54 -1.203,1.227l0,15.634Zm17.598,-15.609c-0,-0.687 -0.589,-1.227 -1.252,-1.227l-0.957,-0c-0.687,-0 -1.227,0.54 -1.227,1.227l-0,20.689c-0,0.688 0.54,1.252 1.227,1.252l0.957,0c0.663,0 1.252,-0.564 1.252,-1.252l-0,-20.689Zm2.258,15.192c-0,2.724 0.76,4.295 1.816,5.375c1.129,1.08 2.552,1.374 3.853,1.374c1.227,0 2.675,-0.294 3.804,-1.374c1.08,-1.08 1.792,-2.651 1.792,-5.375l-0,-0.466c-0,-0.688 -0.54,-1.252 -1.203,-1.252l-0.982,-0c-0.687,-0 -1.251,0.564 -1.251,1.252l-0,0.466c-0,1.252 -0.172,2.16 -0.589,2.724c-0.295,0.344 -0.908,0.614 -1.571,0.614c-1.473,-0 -2.209,-1.031 -2.209,-3.338l0,-9.719c0,-2.307 0.761,-3.289 2.209,-3.289c1.399,0 2.16,0.982 2.16,3.289l-0,0.491c-0,0.687 0.564,1.227 1.251,1.227l0.982,-0c0.663,-0 1.203,-0.54 1.203,-1.227l-0,-0.491c-0,-2.602 -0.712,-4.32 -1.816,-5.35c-1.129,-1.031 -2.504,-1.35 -3.78,-1.35c-1.301,-0 -2.675,0.319 -3.804,1.35c-1.105,1.03 -1.865,2.748 -1.865,5.35l-0,9.719Zm17.008,-7.756l-0,-7.436c-0,-0.687 -0.54,-1.227 -1.227,-1.227l-0.982,-0c-0.687,-0 -1.227,0.54 -1.227,1.227l-0,20.689c-0,0.688 0.54,1.252 1.227,1.252l0.982,0c0.687,0 1.227,-0.564 1.227,-1.252l-0,-6.798l0.417,-0.613l4.59,8.025c0.171,0.319 0.736,0.638 1.079,0.638l1.105,0c1.031,0 1.571,-0.982 1.08,-1.865l-5.768,-10.161l5.743,-9.252c0.54,-0.884 0,-1.89 -1.055,-1.89l-1.178,-0c-0.344,-0 -0.859,0.319 -1.031,0.589l-4.982,8.074Zm20.248,12.321c-0,-0.687 -0.565,-1.227 -1.252,-1.227l-5.105,-0l0,-18.53c0,-0.687 -0.564,-1.227 -1.202,-1.227l-1.007,-0c-0.687,-0 -1.227,0.54 -1.227,1.227l0,20.689c0,0.688 0.54,1.252 1.227,1.252l7.314,0c0.687,0 1.252,-0.564 1.252,-1.252l-0,-0.932Zm1.644,-20.273c-0.147,-0.343 -0.736,-0.711 -1.129,-0.711l-1.104,-0c-0.957,-0 -1.522,0.859 -1.129,1.718c1.472,3.436 2.969,6.847 4.467,10.283l-0,9.915c-0,0.688 0.539,1.252 1.202,1.252l0.957,0c0.687,0 1.227,-0.564 1.227,-1.252l0,-9.89l4.443,-10.308c0.343,-0.859 -0.221,-1.718 -1.129,-1.718l-1.154,-0c-0.368,-0 -0.957,0.368 -1.129,0.711l-2.749,6.333l-2.773,-6.333Zm18.309,15.708c0,4.516 1.89,6.7 5.669,6.7c3.633,0 5.67,-2.062 5.67,-5.915c-0,-3.313 -2.307,-5.08 -4.565,-6.823l0.024,0c-1.668,-1.3 -3.362,-2.65 -3.362,-4.393c0,-1.791 0.785,-2.577 2.233,-2.577c1.522,0 2.234,1.031 2.234,3.289l-0,0.491c-0,0.687 0.54,1.227 1.227,1.227l0.982,-0c0.687,-0 1.227,-0.54 1.227,-1.227l-0,-0.491c-0,-4.369 -1.964,-6.725 -5.67,-6.725c-3.632,0 -5.669,2.234 -5.669,6.111c0,3.387 2.381,5.253 4.639,7.044l-0,-0.049c1.693,1.325 3.264,2.577 3.264,4.197c-0,1.816 -0.785,2.454 -2.234,2.454c-0.49,0 -1.055,-0.073 -1.448,-0.466c-0.466,-0.393 -0.785,-1.203 -0.785,-2.847l0,-0.442c0,-0.687 -0.589,-1.227 -1.227,-1.227l-0.982,-0c-0.687,-0 -1.227,0.54 -1.227,1.227l0,0.442Zm18.653,-3.166c4.197,-0 6.062,-2.184 6.062,-6.627c-0,-4.417 -1.865,-6.626 -6.062,-6.626l-3.706,-0c-0.688,-0 -1.227,0.54 -1.227,1.227l-0,20.689c-0,0.688 0.539,1.252 1.227,1.252l0.957,0c0.663,0 1.202,-0.564 1.202,-1.252l0,-8.663l1.547,-0Zm-0,-9.842c1.865,0 2.626,0.908 2.626,3.215c-0,2.234 -0.761,3.24 -2.626,3.24l-1.547,-0l0,-6.455l1.547,0Zm11.731,-2.184c0,-0.687 -0.589,-1.227 -1.252,-1.227l-0.957,-0c-0.687,-0 -1.227,0.54 -1.227,1.227l0,20.689c0,0.688 0.54,1.252 1.227,1.252l0.957,0c0.663,0 1.252,-0.564 1.252,-1.252l0,-20.689Zm12.468,21.941c0.687,0 1.227,-0.564 1.227,-1.252l0,-20.689c0,-0.687 -0.54,-1.227 -1.227,-1.227l-0.957,-0c-0.687,-0 -1.252,0.54 -1.252,1.227l0,11.339l-4.761,-11.805c-0.147,-0.393 -0.687,-0.761 -1.154,-0.761l-0.81,-0c-0.662,-0 -1.251,0.54 -1.251,1.227l-0,20.689c-0,0.688 0.589,1.252 1.251,1.252l0.982,0c0.663,0 1.252,-0.564 1.252,-1.252l-0,-11.338l4.761,11.829c0.147,0.368 0.736,0.761 1.154,0.761l0.785,0Zm20.984,-22.162c-0.098,-0.565 -0.638,-1.006 -1.202,-1.006l-0.761,-0c-0.54,-0 -1.08,0.441 -1.203,1.006l-1.767,10.431l-1.595,-10.407c-0.098,-0.589 -0.638,-1.03 -1.227,-1.03l-1.007,-0c-0.785,-0 -1.3,0.662 -1.202,1.399l3.362,20.738c0.123,0.54 0.638,1.031 1.203,1.031l0.761,0c0.564,0 1.104,-0.466 1.202,-1.006l1.865,-10.971l1.817,10.971c0.098,0.54 0.662,1.006 1.202,1.006l0.786,0c0.589,0 1.129,-0.491 1.251,-1.031l3.289,-20.738c0.098,-0.737 -0.491,-1.399 -1.227,-1.399l-1.006,-0c-0.589,-0 -1.178,0.441 -1.228,1.03l-1.546,10.333l-1.767,-10.357Zm10.627,-1.006c-0.687,-0 -1.251,0.54 -1.251,1.227l-0,20.689c-0,0.688 0.564,1.252 1.251,1.252l7.412,0c0.687,0 1.252,-0.564 1.252,-1.252l-0,-0.932c-0,-0.687 -0.565,-1.227 -1.252,-1.227l-5.252,-0l-0,-6.504l4.32,-0c0.687,-0 1.251,-0.54 1.251,-1.227l0,-0.933c0,-0.687 -0.564,-1.227 -1.251,-1.227l-4.32,-0l-0,-6.455l5.252,0c0.687,0 1.252,-0.564 1.252,-1.252l-0,-0.932c-0,-0.687 -0.565,-1.227 -1.252,-1.227l-7.412,-0Zm15.757,23.168c4.025,0 5.816,-2.209 5.816,-6.651c0,-2.086 -0.589,-3.829 -1.472,-4.933c-0,-0 1.472,-1.767 1.472,-4.958c0,-4.417 -1.791,-6.626 -5.816,-6.626l-3.387,-0c-0.687,-0 -1.252,0.54 -1.252,1.227l0,20.689c0,0.688 0.565,1.252 1.252,1.252l3.387,0Zm-0,-19.757c1.693,0 2.38,0.908 2.38,3.215c0,2.307 -0.687,3.24 -2.38,3.24l-1.203,-0l0,-6.455l1.203,0Zm-0,9.842c1.693,-0 2.38,0.932 2.38,3.264c0,2.307 -0.687,3.24 -2.38,3.24l-1.203,-0l0,-6.504l1.203,-0Zm8.418,3.166c-0,4.516 1.89,6.7 5.669,6.7c3.657,0 5.67,-2.062 5.67,-5.915c-0,-3.313 -2.283,-5.08 -4.565,-6.823l0.049,0c-1.694,-1.3 -3.387,-2.65 -3.387,-4.393c-0,-1.791 0.81,-2.577 2.233,-2.577c1.522,0 2.234,1.031 2.234,3.289l-0,0.491c-0,0.687 0.564,1.227 1.251,1.227l0.958,-0c0.687,-0 1.227,-0.54 1.227,-1.227l-0,-0.491c-0,-4.369 -1.939,-6.725 -5.67,-6.725c-3.632,0 -5.669,2.234 -5.669,6.111c-0,3.387 2.381,5.253 4.639,7.044l-0,-0.049c1.693,1.325 3.264,2.577 3.264,4.197c-0,1.816 -0.786,2.454 -2.234,2.454c-0.466,0 -1.055,-0.073 -1.423,-0.466c-0.491,-0.393 -0.81,-1.203 -0.81,-2.847l-0,-0.442c-0,-0.687 -0.565,-1.227 -1.227,-1.227l-0.957,-0c-0.688,-0 -1.252,0.54 -1.252,1.227l-0,0.442Zm16.984,-15.192c-0,-0.687 -0.589,-1.227 -1.228,-1.227l-0.981,-0c-0.687,-0 -1.227,0.54 -1.227,1.227l-0,20.689c-0,0.688 0.54,1.252 1.227,1.252l0.981,0c0.639,0 1.228,-0.564 1.228,-1.252l-0,-20.689Zm2.208,0.932c0,0.688 0.54,1.252 1.228,1.252l2.773,0l-0,18.481c-0,0.687 0.564,1.227 1.252,1.227l0.932,0c0.687,0 1.227,-0.54 1.227,-1.227l0,-18.481l2.823,0c0.687,0 1.227,-0.564 1.227,-1.252l0,-0.957c0,-0.687 -0.54,-1.227 -1.227,-1.227l-9.007,0c-0.688,0 -1.228,0.54 -1.228,1.227l0,0.957Zm15.119,-2.159c-0.687,-0 -1.252,0.54 -1.252,1.227l0,20.689c0,0.688 0.565,1.252 1.252,1.252l7.412,0c0.687,0 1.227,-0.564 1.227,-1.252l-0,-0.932c-0,-0.687 -0.54,-1.227 -1.227,-1.227l-5.252,-0l-0,-6.504l4.319,-0c0.687,-0 1.252,-0.54 1.252,-1.227l-0,-0.933c-0,-0.687 -0.565,-1.227 -1.252,-1.227l-4.319,-0l-0,-6.455l5.252,0c0.687,0 1.227,-0.564 1.227,-1.252l-0,-0.932c-0,-0.687 -0.54,-1.227 -1.227,-1.227l-7.412,-0Zm9.817,16.419c0,4.516 1.89,6.7 5.669,6.7c3.633,0 5.67,-2.062 5.67,-5.915c-0,-3.313 -2.307,-5.08 -4.565,-6.823l0.024,0c-1.668,-1.3 -3.362,-2.65 -3.362,-4.393c0,-1.791 0.785,-2.577 2.233,-2.577c1.522,0 2.234,1.031 2.234,3.289l-0,0.491c-0,0.687 0.54,1.227 1.227,1.227l0.982,-0c0.687,-0 1.227,-0.54 1.227,-1.227l-0,-0.491c-0,-4.369 -1.964,-6.725 -5.67,-6.725c-3.632,0 -5.669,2.234 -5.669,6.111c0,3.387 2.381,5.253 4.639,7.044l-0,-0.049c1.693,1.325 3.264,2.577 3.264,4.197c-0,1.816 -0.786,2.454 -2.234,2.454c-0.49,0 -1.055,-0.073 -1.448,-0.466c-0.466,-0.393 -0.785,-1.203 -0.785,-2.847l0,-0.442c0,-0.687 -0.589,-1.227 -1.227,-1.227l-0.982,-0c-0.687,-0 -1.227,0.54 -1.227,1.227l0,0.442Zm30.728,-15.413c-0.123,-0.565 -0.663,-1.006 -1.203,-1.006l-0.761,-0c-0.564,-0 -1.104,0.441 -1.202,1.006l-1.792,10.431l-1.571,-10.407c-0.122,-0.589 -0.662,-1.03 -1.251,-1.03l-0.982,-0c-0.81,-0 -1.325,0.662 -1.203,1.399l3.363,20.738c0.098,0.54 0.613,1.031 1.202,1.031l0.761,0c0.54,0 1.08,-0.466 1.203,-1.006l1.84,-10.971l1.817,10.971c0.122,0.54 0.662,1.006 1.202,1.006l0.81,0c0.565,0 1.129,-0.491 1.227,-1.031l3.289,-20.738c0.123,-0.737 -0.466,-1.399 -1.227,-1.399l-1.006,-0c-0.565,-0 -1.154,0.441 -1.228,1.03l-1.546,10.333l-1.742,-10.357Zm12.541,0.221c0,-0.687 -0.589,-1.227 -1.252,-1.227l-0.957,-0c-0.687,-0 -1.227,0.54 -1.227,1.227l0,20.689c0,0.688 0.54,1.252 1.227,1.252l0.957,0c0.663,0 1.252,-0.564 1.252,-1.252l0,-20.689Zm2.184,0.932c0,0.688 0.565,1.252 1.252,1.252l2.774,0l-0,18.481c-0,0.687 0.539,1.227 1.227,1.227l0.932,0c0.687,0 1.252,-0.54 1.252,-1.227l-0,-18.481l2.798,0c0.687,0 1.252,-0.564 1.252,-1.252l-0,-0.957c-0,-0.687 -0.565,-1.227 -1.252,-1.227l-8.983,0c-0.687,0 -1.252,0.54 -1.252,1.227l0,0.957Zm16.027,7.731l-0,-8.663c-0,-0.687 -0.565,-1.227 -1.252,-1.227l-0.957,-0c-0.687,-0 -1.227,0.54 -1.227,1.227l-0,20.689c-0,0.688 0.54,1.252 1.227,1.252l0.957,0c0.687,0 1.252,-0.564 1.252,-1.252l-0,-8.614l3.804,-0l0,8.614c0,0.688 0.54,1.252 1.227,1.252l0.982,0c0.687,0 1.227,-0.564 1.227,-1.252l0,-20.689c0,-0.687 -0.54,-1.227 -1.227,-1.227l-0.982,-0c-0.687,-0 -1.227,0.54 -1.227,1.227l0,8.663l-3.804,0Zm16.959,6.971c0,4.123 1.792,6.307 5.375,6.307c3.559,0 5.277,-2.184 5.277,-6.307l-0,-15.634c-0,-0.687 -0.54,-1.227 -1.203,-1.227l-0.957,-0c-0.687,-0 -1.227,0.54 -1.227,1.227l-0,15.634c-0,2.012 -0.663,2.896 -1.89,2.896c-0.466,-0 -0.933,-0.025 -1.252,-0.344c-0.417,-0.417 -0.687,-1.129 -0.687,-2.552l0,-0.467c0,-0.662 -0.589,-1.202 -1.227,-1.202l-0.957,-0c-0.687,-0 -1.252,0.54 -1.252,1.202l0,0.467Zm22.555,5.325c0.123,0.516 0.687,0.982 1.203,0.982l0.981,0c0.835,0 1.375,-0.736 1.203,-1.521l-4.737,-20.69c-0.098,-0.516 -0.687,-0.957 -1.202,-0.957l-0.761,-0c-0.516,-0 -1.056,0.441 -1.203,0.957l-3.117,13.449l-1.644,7.265c-0.172,0.81 0.368,1.497 1.202,1.497l0.982,0c0.516,0 1.08,-0.466 1.203,-0.982l1.202,-5.35l3.51,0l1.178,5.35Zm-2.921,-14.259c0.639,2.921 0.565,3.853 0.958,5.498l-1.939,-0l0.981,-5.498Zm17.549,15.241c0.687,0 1.227,-0.564 1.227,-1.252l-0,-20.689c-0,-0.687 -0.54,-1.227 -1.227,-1.227l-0.958,-0c-0.687,-0 -1.251,0.54 -1.251,1.227l-0,11.339l-4.762,-11.805c-0.147,-0.393 -0.687,-0.761 -1.129,-0.761l-0.834,-0c-0.663,-0 -1.227,0.54 -1.227,1.227l-0,20.689c-0,0.688 0.564,1.252 1.227,1.252l1.006,0c0.638,0 1.227,-0.564 1.227,-1.252l0,-11.338l4.786,11.829c0.123,0.368 0.712,0.761 1.129,0.761l0.786,0Zm5.154,-23.168c-0.688,-0 -1.228,0.54 -1.228,1.227l0,20.689c0,0.688 0.54,1.252 1.228,1.252l7.412,0c0.687,0 1.251,-0.564 1.251,-1.252l0,-0.932c0,-0.687 -0.564,-1.227 -1.251,-1.227l-5.253,-0l0,-6.504l4.344,-0c0.688,-0 1.228,-0.54 1.228,-1.227l-0,-0.933c-0,-0.687 -0.54,-1.227 -1.228,-1.227l-4.344,-0l0,-6.455l5.253,0c0.687,0 1.251,-0.564 1.251,-1.252l0,-0.932c0,-0.687 -0.564,-1.227 -1.251,-1.227l-7.412,-0Zm10.798,2.159c0,0.688 0.54,1.252 1.228,1.252l2.773,0l-0,18.481c-0,0.687 0.564,1.227 1.252,1.227l0.932,0c0.687,0 1.227,-0.54 1.227,-1.227l0,-18.481l2.823,0c0.687,0 1.227,-0.564 1.227,-1.252l0,-0.957c0,-0.687 -0.54,-1.227 -1.227,-1.227l-9.007,0c-0.688,0 -1.228,0.54 -1.228,1.227l0,0.957Z" style="fill:white;fill-rule:nonzero;"/>
    </g>
</svg>
